<svg width="41" height="41" viewBox="0 0 41 41" fill="none" xmlns="http://www.w3.org/2000/svg">
<path d="M13.7682 27.2356L27.2353 13.7686M18.2573 7.0351L19.2965 5.83205C21.4014 3.72744 24.2561 2.5452 27.2327 2.54541C30.2093 2.54562 33.0639 3.72826 35.1685 5.83317C37.2731 7.93808 38.4553 10.7928 38.4551 13.7694C38.4549 16.746 37.2723 19.6006 35.1673 21.7052L33.9688 22.7466M22.7463 33.9691L21.8552 35.1677C19.7257 37.2735 16.8517 38.4545 13.8569 38.4545C10.8621 38.4545 7.98809 37.2735 5.85862 35.1677C4.80899 34.1298 3.97569 32.8941 3.40697 31.5319C2.83825 30.1698 2.54541 28.7084 2.54541 27.2323C2.54541 25.7562 2.83825 24.2947 3.40697 22.9326C3.97569 21.5705 4.80899 20.3347 5.85862 19.2968L7.03474 18.2576" stroke="#D9D9D9" stroke-width="4" stroke-linecap="round" stroke-linejoin="round"/>
</svg>
