<svg width="67" height="67" viewBox="0 0 67 67" fill="none" xmlns="http://www.w3.org/2000/svg">
<path d="M27.6406 52.25C27.6406 52.25 29.9844 49.9062 33.5 49.9062C37.0156 49.9062 39.3594 52.25 39.3594 52.25M63.9688 33.5C63.9688 50.3281 50.3281 63.9688 33.5 63.9688C16.6719 63.9688 3.03125 50.3281 3.03125 33.5C3.03125 16.6719 16.6719 3.03125 33.5 3.03125C50.3281 3.03125 63.9688 16.6719 63.9688 33.5ZM49.9062 38.1875C49.9062 38.8091 49.6593 39.4052 49.2198 39.8448C48.7802 40.2843 48.1841 40.5312 47.5625 40.5312C46.9409 40.5312 46.3448 40.2843 45.9052 39.8448C45.4657 39.4052 45.2188 38.8091 45.2188 38.1875C45.2188 37.5659 45.4657 36.9698 45.9052 36.5302C46.3448 36.0907 46.9409 35.8438 47.5625 35.8438C48.1841 35.8438 48.7802 36.0907 49.2198 36.5302C49.6593 36.9698 49.9062 37.5659 49.9062 38.1875ZM21.7812 38.1875C21.7812 38.8091 21.5343 39.4052 21.0948 39.8448C20.6552 40.2843 20.0591 40.5312 19.4375 40.5312C18.8159 40.5312 18.2198 40.2843 17.7802 39.8448C17.3407 39.4052 17.0938 38.8091 17.0938 38.1875C17.0938 37.5659 17.3407 36.9698 17.7802 36.5302C18.2198 36.0907 18.8159 35.8438 19.4375 35.8438C20.0591 35.8438 20.6552 36.0907 21.0948 36.5302C21.5343 36.9698 21.7812 37.5659 21.7812 38.1875Z" stroke="#D9D9D8" stroke-width="5" stroke-linecap="round" stroke-linejoin="round"/>
</svg>
