<svg width="19" height="17" viewBox="0 0 19 17" fill="none" xmlns="http://www.w3.org/2000/svg">
<path d="M4.81458 4.20899C7.17444 1.84913 10.9874 1.83775 13.3624 4.17105L11.7993 5.73039C11.5375 5.99217 11.4617 6.38295 11.602 6.72441C11.7424 7.06587 12.0763 7.28592 12.4443 7.28592H17.3006C17.8052 7.28592 18.2112 6.87997 18.2112 6.37536V1.51905C18.2112 1.15104 17.9911 0.817166 17.6497 0.676788C17.3082 0.53641 16.9174 0.61229 16.6556 0.874076L15.0773 2.45238C11.7538 -0.829427 6.40047 -0.818045 3.0959 2.49032C2.17016 3.41605 1.50242 4.50493 1.09267 5.66968C0.868824 6.30328 1.2027 6.99379 1.8325 7.21763C2.4623 7.44148 3.1566 7.1076 3.38045 6.4778C3.67259 5.65071 4.14683 4.87294 4.81458 4.20899ZM0 10.6246V15.4809C0 15.849 0.220052 16.1828 0.561511 16.3232C0.90297 16.4636 1.29375 16.3877 1.55554 16.1259L3.13384 14.5476C6.45738 17.8294 11.8107 17.818 15.1153 14.5097C16.041 13.584 16.7125 12.4951 17.1223 11.3341C17.3461 10.7005 17.0123 10.01 16.3825 9.78616C15.7527 9.56232 15.0584 9.89619 14.8345 10.526C14.5424 11.3531 14.0681 12.1309 13.4004 12.7948C11.0405 15.1547 7.22756 15.166 4.85252 12.8327L6.41185 11.2696C6.67363 11.0078 6.74951 10.617 6.60914 10.2756C6.46876 9.93413 6.13489 9.71408 5.76687 9.71408H0.910558C0.405957 9.71408 0 10.12 0 10.6246Z" fill="#212121"/>
</svg>
