<svg width="40" height="46" viewBox="0 0 40 46" fill="none" xmlns="http://www.w3.org/2000/svg">
<path d="M19.7917 0L39.5833 11.4583V34.375L19.7917 45.8333L0 34.375V11.4583L19.7917 0ZM19.7917 29.1667C21.4493 29.1667 23.039 28.5082 24.2111 27.3361C25.3832 26.164 26.0417 24.5743 26.0417 22.9167C26.0417 21.2591 25.3832 19.6693 24.2111 18.4972C23.039 17.3251 21.4493 16.6667 19.7917 16.6667C18.1341 16.6667 16.5443 17.3251 15.3722 18.4972C14.2001 19.6693 13.5417 21.2591 13.5417 22.9167C13.5417 24.5743 14.2001 26.164 15.3722 27.3361C16.5443 28.5082 18.1341 29.1667 19.7917 29.1667Z" fill="#D9D9D9"/>
</svg>
