<svg width="40" height="40" viewBox="0 0 40 40" fill="none" xmlns="http://www.w3.org/2000/svg">
<path d="M20.2625 36.6663L10.4187 26.7225C10.2714 21.5395 8.35978 16.5619 5 12.6125C13.6625 15.87 15.05 22.385 15.05 22.385C16.6062 14.7713 10.8125 3.33252 10.8125 3.33252C27.4438 24.1475 20.2625 36.6663 20.2625 36.6663ZM20.7125 16.25C22.8074 11.5119 25.6639 7.14878 29.1687 3.33377C26.3125 9.45392 24.4698 15.9975 23.7125 22.7088C23.7125 22.7088 22.4375 18.22 20.7125 16.25ZM35 12.3488C23.3563 19.3188 24.5938 31.7425 24.5938 31.7425L29.825 26.42C29.6375 16.2875 35 12.3488 35 12.3488Z" fill="#D9D9D9"/>
</svg>
