<svg width="40" height="40" viewBox="0 0 40 40" fill="none" xmlns="http://www.w3.org/2000/svg">
<path d="M23.363 9H17.302L16.241 10.417L20.332 15.454L24.423 10.417L23.362 9H23.363ZM15.485 13.88H7C8.167 15.024 9.514 16.101 10.939 16.871C11.511 17.056 12.007 17.184 12.606 17.186H14.879L12.455 20.177L16.394 22.066L17.909 16.399L15.485 13.88ZM25.181 13.88H33.666C32.498 15.023 31.151 16.102 29.727 16.871C29.155 17.056 28.659 17.184 28.06 17.186H25.787L28.211 20.177L24.272 22.066L22.757 16.399L25.181 13.88ZM23.515 29.148L21.091 16.555C21.0441 16.7248 20.9463 16.8762 20.8108 16.9889C20.6753 17.1015 20.5086 17.1699 20.333 17.185C20.1578 17.169 19.9915 17.1002 19.8562 16.9877C19.7209 16.8752 19.6228 16.7243 19.575 16.555L17.151 29.148L20.333 31.667L23.515 29.148Z" fill="#D9D9D9"/>
</svg>
